
      <svg xmlns="http://www.w3.org/2000/svg" 
           viewBox="0 0 350 470">
        <path d="M 30 0 L 320 0 L 320 30 L 350 30 L 336.60254037844385 235 L 350 440 L 320 440 L 320 470 L 30 470 L 30 440 L 0 440 L 13.397459621556134 235 L 0 30 L 30 30 Z" fill="none" stroke="black" stroke-width="1"/>
        <path d="M 75.5 220 L 274.5 220 A 15 15 0 0 1 289.5 235 L 289.5 235 A 15 15 0 0 1 274.5 250 L 75.5 250 A 15 15 0 0 1 60.5 235 L 60.5 235 A 15 15 0 0 1 75.5 220" fill="none" stroke="black" stroke-width="1"/>
      </svg>
    